<svg width="560" height="380" viewBox="0 0 560 380" fill="none" xmlns="http://www.w3.org/2000/svg">
  <defs>
    <linearGradient id="bg" x1="0" y1="0" x2="560" y2="380" gradientUnits="userSpaceOnUse">
      <stop stop-color="#071224"/>
      <stop offset="1" stop-color="#143A6B"/>
    </linearGradient>
    <linearGradient id="blue" x1="92" y1="80" x2="468" y2="300" gradientUnits="userSpaceOnUse">
      <stop stop-color="#7DD3FC"/>
      <stop offset="1" stop-color="#2563EB"/>
    </linearGradient>
  </defs>
  <rect width="560" height="380" rx="24" fill="url(#bg)"/>
  <path d="M0 214C88 192 156 234 238 212C318 191 376 193 560 216" stroke="#38BDF8" stroke-opacity="0.42" stroke-width="3"/>
  <path d="M64 78H496M64 302H496" stroke="#93C5FD" stroke-opacity="0.18" stroke-width="2"/>
  <path d="M96 48V332M464 48V332" stroke="#93C5FD" stroke-opacity="0.14" stroke-width="2"/>
  <rect x="84" y="86" width="392" height="208" rx="22" fill="white" fill-opacity="0.08" stroke="#BFDBFE" stroke-opacity="0.18"/>
  <rect x="114" y="116" width="146" height="148" rx="16" fill="#020817" fill-opacity="0.78"/>
  <rect x="290" y="116" width="156" height="148" rx="16" fill="#020817" fill-opacity="0.5"/>
  <path d="M152 158L130 190L152 222" stroke="#7DD3FC" stroke-width="7" stroke-linecap="round" stroke-linejoin="round"/>
  <path d="M222 158L244 190L222 222" stroke="#7DD3FC" stroke-width="7" stroke-linecap="round" stroke-linejoin="round"/>
  <path d="M205 148L169 232" stroke="#2563EB" stroke-width="7" stroke-linecap="round"/>
  <rect x="318" y="146" width="96" height="8" rx="4" fill="#93C5FD"/>
  <rect x="318" y="172" width="70" height="8" rx="4" fill="#DBEAFE" fill-opacity="0.32"/>
  <rect x="318" y="198" width="102" height="8" rx="4" fill="#DBEAFE" fill-opacity="0.24"/>
  <rect x="318" y="224" width="82" height="8" rx="4" fill="#DBEAFE" fill-opacity="0.2"/>
  <circle cx="280" cy="190" r="62" fill="url(#blue)" fill-opacity="0.12"/>
  <circle cx="280" cy="190" r="9" fill="#7DD3FC"/>
  <circle cx="68" cy="64" r="5" fill="#7DD3FC"/>
  <circle cx="496" cy="318" r="6" fill="#2563EB"/>
</svg>
