<svg width="560" height="380" viewBox="0 0 560 380" fill="none" xmlns="http://www.w3.org/2000/svg">
  <defs>
    <linearGradient id="bg" x1="0" y1="0" x2="560" y2="380" gradientUnits="userSpaceOnUse">
      <stop stop-color="#FFFFFF"/>
      <stop offset="1" stop-color="#EEF6FF"/>
    </linearGradient>
    <linearGradient id="blue" x1="118" y1="74" x2="442" y2="306" gradientUnits="userSpaceOnUse">
      <stop stop-color="#7DD3FC"/>
      <stop offset="1" stop-color="#2563EB"/>
    </linearGradient>
    <filter id="shadow" x="54" y="44" width="452" height="292" filterUnits="userSpaceOnUse" color-interpolation-filters="sRGB">
      <feDropShadow dx="0" dy="18" stdDeviation="22" flood-color="#0F1B2D" flood-opacity="0.12"/>
    </filter>
  </defs>
  <rect width="560" height="380" rx="24" fill="url(#bg)"/>
  <g opacity="0.72">
    <circle cx="88" cy="84" r="4" fill="#2563EB" fill-opacity="0.28"/>
    <circle cx="472" cy="66" r="6" fill="#38BDF8" fill-opacity="0.34"/>
    <circle cx="498" cy="300" r="5" fill="#2563EB" fill-opacity="0.22"/>
  </g>
  <g filter="url(#shadow)">
    <rect x="84" y="76" width="392" height="228" rx="22" fill="white"/>
    <rect x="116" y="108" width="144" height="164" rx="16" fill="#F0F6FF" stroke="#D8E6F6"/>
    <rect x="292" y="108" width="136" height="28" rx="14" fill="#2563EB"/>
    <rect x="292" y="158" width="136" height="16" rx="8" fill="#D8E6F6"/>
    <rect x="292" y="188" width="104" height="16" rx="8" fill="#D8E6F6"/>
    <rect x="292" y="218" width="124" height="16" rx="8" fill="#D8E6F6"/>
    <path d="M152 230L188 132L224 230H152Z" fill="url(#blue)" fill-opacity="0.16"/>
    <path d="M188 132L224 230H152L188 132Z" stroke="#2563EB" stroke-width="4" stroke-linejoin="round"/>
    <circle cx="188" cy="132" r="8" fill="#2563EB"/>
    <circle cx="152" cy="230" r="8" fill="#7DD3FC"/>
    <circle cx="224" cy="230" r="8" fill="#7DD3FC"/>
    <path d="M188 132V230" stroke="#2563EB" stroke-opacity="0.35" stroke-width="3"/>
  </g>
  <path d="M42 328H518" stroke="#D8E6F6" stroke-width="2"/>
</svg>
